<?xml version="1.0" encoding="UTF-8" standalone="no"?>
<svg
   id="eudemia-with-text-side"
   width="88"
   height="16"
   viewBox="0 0 88 16"
   preserveAspectRatio="xMidYMid meet"
   rendering="crispEdges"
   version="1.1"
   sodipodi:docname="logo.svg"
   inkscape:version="1.3.2 (091e20e, 2023-11-25, custom)"
   xmlns:inkscape="http://www.inkscape.org/namespaces/inkscape"
   xmlns:sodipodi="http://sodipodi.sourceforge.net/DTD/sodipodi-0.dtd"
   xmlns="http://www.w3.org/2000/svg"
   xmlns:svg="http://www.w3.org/2000/svg">
  <defs
     id="defs1" />
  <sodipodi:namedview
     id="namedview1"
     pagecolor="#ffffff"
     bordercolor="#999999"
     borderopacity="1"
     inkscape:showpageshadow="2"
     inkscape:pageopacity="0"
     inkscape:pagecheckerboard="0"
     inkscape:deskcolor="#d1d1d1"
     inkscape:zoom="22.284091"
     inkscape:cx="43.281999"
     inkscape:cy="8.8628251"
     inkscape:window-width="2880"
     inkscape:window-height="1766"
     inkscape:window-x="-11"
     inkscape:window-y="-11"
     inkscape:window-maximized="1"
     inkscape:current-layer="eudemia-with-text-side" />
  <path
     id="12-1"
     style="fill:#000000;opacity:255;"
     d="M 11 0 L 11 1 L 10 1 L 9 1 L 8 1 L 8 2 L 7 2 L 6 2 L 5 2 L 5 3 L 4 3 L 3 3 L 2 3 L 2 4 L 1 4 L 0 4 L 0 5 L 1 5 L 2 5 L 2 6 L 3 6 L 4 6 L 5 6 L 5 7 L 6 7 L 7 7 L 8 7 L 8 8 L 9 8 L 10 8 L 11 8 L 11 9 L 12 9 L 13 9 L 14 9 L 14 8 L 15 8 L 16 8 L 17 8 L 17 7 L 18 7 L 19 7 L 20 7 L 20 6 L 21 6 L 22 6 L 23 6 L 23 5 L 24 5 L 25 5 L 25 4 L 24 4 L 23 4 L 23 3 L 22 3 L 21 3 L 20 3 L 20 2 L 19 2 L 18 2 L 17 2 L 17 1 L 16 1 L 15 1 L 14 1 L 14 0 L 13 0 L 12 0 L 11 0 z M 23 6 L 23 7 L 23 8 L 23 9 L 23 10 L 23 11 L 23 12 L 23 13 L 23 14 L 23 15 L 22 15 L 22 16 L 23 16 L 24 16 L 25 16 L 25 15 L 24 15 L 24 14 L 24 13 L 24 12 L 24 11 L 24 10 L 24 9 L 24 8 L 24 7 L 24 6 L 23 6 z M 3 7 L 3 8 L 3 9 L 3 10 L 3 11 L 3 12 L 3 13 L 4 13 L 4 12 L 4 11 L 4 10 L 4 9 L 4 8 L 4 7 L 3 7 z M 4 13 L 4 14 L 5 14 L 6 14 L 6 13 L 5 13 L 4 13 z M 6 14 L 6 15 L 7 15 L 8 15 L 9 15 L 10 15 L 10 14 L 9 14 L 8 14 L 7 14 L 6 14 z M 10 15 L 10 16 L 11 16 L 12 16 L 13 16 L 14 16 L 15 16 L 15 15 L 14 15 L 13 15 L 12 15 L 11 15 L 10 15 z M 15 15 L 16 15 L 17 15 L 18 15 L 19 15 L 19 14 L 18 14 L 17 14 L 16 14 L 15 14 L 15 15 z M 19 14 L 20 14 L 21 14 L 21 13 L 20 13 L 19 13 L 19 14 z M 21 13 L 22 13 L 22 12 L 22 11 L 22 10 L 22 9 L 22 8 L 22 7 L 21 7 L 21 8 L 21 9 L 21 10 L 21 11 L 21 12 L 21 13 z " />
  <path
     id="29-4"
     style="fill:#000000;opacity:255;stroke:#000000;stroke-opacity:1;stroke-width:0.25;stroke-dasharray:none"
     d="M 28 3 L 28 4 L 28 5 L 28 6 L 28 7 L 28 8 L 28 9 L 28 10 L 28 11 L 28 12 L 28 13 L 29 13 L 30 13 L 31 13 L 32 13 L 33 13 L 34 13 L 34 12 L 34 11 L 33 11 L 32 11 L 31 11 L 30 11 L 30 10 L 30 9 L 31 9 L 32 9 L 32 8 L 32 7 L 31 7 L 30 7 L 30 6 L 30 5 L 31 5 L 32 5 L 33 5 L 34 5 L 34 4 L 34 3 L 33 3 L 32 3 L 31 3 L 30 3 L 29 3 L 28 3 z M 36 3 L 36 4 L 36 5 L 36 6 L 36 7 L 36 8 L 36 9 L 36 10 L 36 11 L 37 11 L 38 11 L 38 10 L 38 9 L 38 8 L 38 7 L 38 6 L 38 5 L 38 4 L 38 3 L 37 3 L 36 3 z M 38 11 L 38 12 L 38 13 L 39 13 L 40 13 L 41 13 L 42 13 L 42 12 L 42 11 L 41 11 L 40 11 L 39 11 L 38 11 z M 42 11 L 43 11 L 44 11 L 44 10 L 44 9 L 44 8 L 44 7 L 44 6 L 44 5 L 44 4 L 44 3 L 43 3 L 42 3 L 42 4 L 42 5 L 42 6 L 42 7 L 42 8 L 42 9 L 42 10 L 42 11 z M 46 3 L 46 4 L 46 5 L 46 6 L 46 7 L 46 8 L 46 9 L 46 10 L 46 11 L 46 12 L 46 13 L 47 13 L 48 13 L 49 13 L 50 13 L 51 13 L 52 13 L 52 12 L 52 11 L 51 11 L 50 11 L 49 11 L 48 11 L 48 10 L 48 9 L 48 8 L 48 7 L 48 6 L 48 5 L 49 5 L 50 5 L 51 5 L 52 5 L 52 4 L 52 3 L 51 3 L 50 3 L 49 3 L 48 3 L 47 3 L 46 3 z M 52 5 L 52 6 L 52 7 L 52 8 L 52 9 L 52 10 L 52 11 L 53 11 L 54 11 L 54 10 L 54 9 L 54 8 L 54 7 L 54 6 L 54 5 L 53 5 L 52 5 z M 56 3 L 56 4 L 56 5 L 56 6 L 56 7 L 56 8 L 56 9 L 56 10 L 56 11 L 56 12 L 56 13 L 57 13 L 58 13 L 59 13 L 60 13 L 61 13 L 62 13 L 62 12 L 62 11 L 61 11 L 60 11 L 59 11 L 58 11 L 58 10 L 58 9 L 59 9 L 60 9 L 60 8 L 60 7 L 59 7 L 58 7 L 58 6 L 58 5 L 59 5 L 60 5 L 61 5 L 62 5 L 62 4 L 62 3 L 61 3 L 60 3 L 59 3 L 58 3 L 57 3 L 56 3 z M 64 3 L 64 4 L 64 5 L 64 6 L 64 7 L 64 8 L 64 9 L 64 10 L 64 11 L 64 12 L 64 13 L 65 13 L 66 13 L 66 12 L 66 11 L 66 10 L 66 9 L 66 8 L 66 7 L 67 7 L 68 7 L 68 6 L 68 5 L 67 5 L 66 5 L 66 4 L 66 3 L 65 3 L 64 3 z M 68 7 L 68 8 L 68 9 L 69 9 L 70 9 L 70 8 L 70 7 L 69 7 L 68 7 z M 70 7 L 71 7 L 72 7 L 72 8 L 72 9 L 72 10 L 72 11 L 72 12 L 72 13 L 73 13 L 74 13 L 74 12 L 74 11 L 74 10 L 74 9 L 74 8 L 74 7 L 74 6 L 74 5 L 74 4 L 74 3 L 73 3 L 72 3 L 72 4 L 72 5 L 71 5 L 70 5 L 70 6 L 70 7 z M 76 3 L 76 4 L 76 5 L 76 6 L 76 7 L 76 8 L 76 9 L 76 10 L 76 11 L 76 12 L 76 13 L 77 13 L 78 13 L 78 12 L 78 11 L 78 10 L 78 9 L 78 8 L 78 7 L 78 6 L 78 5 L 78 4 L 78 3 L 77 3 L 76 3 z M 82 3 L 82 4 L 82 5 L 83 5 L 84 5 L 85 5 L 86 5 L 86 4 L 86 3 L 85 3 L 84 3 L 83 3 L 82 3 z M 86 5 L 86 6 L 86 7 L 85 7 L 84 7 L 83 7 L 82 7 L 82 6 L 82 5 L 81 5 L 80 5 L 80 6 L 80 7 L 80 8 L 80 9 L 80 10 L 80 11 L 80 12 L 80 13 L 81 13 L 82 13 L 82 12 L 82 11 L 82 10 L 82 9 L 83 9 L 84 9 L 85 9 L 86 9 L 86 10 L 86 11 L 86 12 L 86 13 L 87 13 L 88 13 L 88 12 L 88 11 L 88 10 L 88 9 L 88 8 L 88 7 L 88 6 L 88 5 L 87 5 L 86 5 z " />
</svg>
