<?xml version="1.0" encoding="UTF-8" standalone="no"?><svg xmlns="http://www.w3.org/2000/svg" id="bell" width="7" height="9" viewBox="0 0 7 9" preserveAspectRatio="xMidYMid meet" rendering="crispEdges"><rect id="4-1" x="3" y="0" width="1" height="1" shape-rendering="crispEdges" style="fill:#000000;opacity:255;"></rect><rect id="3-2" x="2" y="1" width="1" height="1" shape-rendering="crispEdges" style="fill:#000000;opacity:255;"></rect><rect id="4-2" x="3" y="1" width="1" height="1" shape-rendering="crispEdges" style="fill:#000000;opacity:255;"></rect><rect id="5-2" x="4" y="1" width="1" height="1" shape-rendering="crispEdges" style="fill:#000000;opacity:255;"></rect><rect id="2-3" x="1" y="2" width="1" height="1" shape-rendering="crispEdges" style="fill:#000000;opacity:255;"></rect><rect id="3-3" x="2" y="2" width="1" height="1" shape-rendering="crispEdges" style="fill:#000000;opacity:255;"></rect><rect id="4-3" x="3" y="2" width="1" height="1" shape-rendering="crispEdges" style="fill:#000000;opacity:255;"></rect><rect id="5-3" x="4" y="2" width="1" height="1" shape-rendering="crispEdges" style="fill:#000000;opacity:255;"></rect><rect id="6-3" x="5" y="2" width="1" height="1" shape-rendering="crispEdges" style="fill:#000000;opacity:255;"></rect><rect id="2-4" x="1" y="3" width="1" height="1" shape-rendering="crispEdges" style="fill:#000000;opacity:255;"></rect><rect id="3-4" x="2" y="3" width="1" height="1" shape-rendering="crispEdges" style="fill:#000000;opacity:255;"></rect><rect id="4-4" x="3" y="3" width="1" height="1" shape-rendering="crispEdges" style="fill:#000000;opacity:255;"></rect><rect id="5-4" x="4" y="3" width="1" height="1" shape-rendering="crispEdges" style="fill:#000000;opacity:255;"></rect><rect id="6-4" x="5" y="3" width="1" height="1" shape-rendering="crispEdges" style="fill:#000000;opacity:255;"></rect><rect id="2-5" x="1" y="4" width="1" height="1" shape-rendering="crispEdges" style="fill:#000000;opacity:255;"></rect><rect id="3-5" x="2" y="4" width="1" height="1" shape-rendering="crispEdges" style="fill:#000000;opacity:255;"></rect><rect id="4-5" x="3" y="4" width="1" height="1" shape-rendering="crispEdges" style="fill:#000000;opacity:255;"></rect><rect id="5-5" x="4" y="4" width="1" height="1" shape-rendering="crispEdges" style="fill:#000000;opacity:255;"></rect><rect id="6-5" x="5" y="4" width="1" height="1" shape-rendering="crispEdges" style="fill:#000000;opacity:255;"></rect><rect id="2-6" x="1" y="5" width="1" height="1" shape-rendering="crispEdges" style="fill:#000000;opacity:255;"></rect><rect id="3-6" x="2" y="5" width="1" height="1" shape-rendering="crispEdges" style="fill:#000000;opacity:255;"></rect><rect id="4-6" x="3" y="5" width="1" height="1" shape-rendering="crispEdges" style="fill:#000000;opacity:255;"></rect><rect id="5-6" x="4" y="5" width="1" height="1" shape-rendering="crispEdges" style="fill:#000000;opacity:255;"></rect><rect id="6-6" x="5" y="5" width="1" height="1" shape-rendering="crispEdges" style="fill:#000000;opacity:255;"></rect><rect id="1-7" x="0" y="6" width="1" height="1" shape-rendering="crispEdges" style="fill:#000000;opacity:255;"></rect><rect id="2-7" x="1" y="6" width="1" height="1" shape-rendering="crispEdges" style="fill:#000000;opacity:255;"></rect><rect id="3-7" x="2" y="6" width="1" height="1" shape-rendering="crispEdges" style="fill:#000000;opacity:255;"></rect><rect id="4-7" x="3" y="6" width="1" height="1" shape-rendering="crispEdges" style="fill:#000000;opacity:255;"></rect><rect id="5-7" x="4" y="6" width="1" height="1" shape-rendering="crispEdges" style="fill:#000000;opacity:255;"></rect><rect id="6-7" x="5" y="6" width="1" height="1" shape-rendering="crispEdges" style="fill:#000000;opacity:255;"></rect><rect id="7-7" x="6" y="6" width="1" height="1" shape-rendering="crispEdges" style="fill:#000000;opacity:255;"></rect><rect id="4-9" x="3" y="8" width="1" height="1" shape-rendering="crispEdges" style="fill:#000000;opacity:255;"></rect></svg>